<?xml version="1.0" encoding="UTF-8"?>
<svg width="256px" height="256px" viewBox="0 0 256 256" version="1.1" xmlns="http://www.w3.org/2000/svg">
    <g>
        <path d="M250.346 37.6937C247.358 26.4981 238.72 17.8093 227.574 14.8011C207.532 10.6711 128 10.6711 128 10.6711C128 10.6711 48.468 10.6711 28.426 14.8011C17.28 17.8093 8.642 26.4981 5.654 37.6937C1.54 57.8434 1.54 128.001 1.54 128.001C1.54 128.001 1.54 198.157 5.654 218.307C8.642 229.503 17.28 237.721 28.426 240.729C48.468 244.859 128 244.859 128 244.859C128 244.859 207.532 244.859 227.574 240.729C238.72 237.721 247.358 229.503 250.346 218.307C254.46 198.157 254.46 128.001 254.46 128.001C254.46 128.001 254.46 57.8434 250.346 37.6937" fill="#FF0000"/>
        <path d="M102.421 166.27L169.532 128.001L102.421 89.7305V166.27Z" fill="#FFFFFF"/>
    </g>
</svg>
